<?xml version="1.0" encoding="UTF-8" standalone="no" ?>
<!DOCTYPE svg PUBLIC "-//W3C//DTD SVG 1.1//EN" "http://www.w3.org/Graphics/SVG/1.1/DTD/svg11.dtd">
<svg xmlns="http://www.w3.org/2000/svg" xmlns:xlink="http://www.w3.org/1999/xlink" version="1.1" width="137.99" height="137.99" xml:space="preserve">
<desc>Created with Fabric.js 1.6.0-rc.1</desc>
<defs></defs>
<g style="stroke: none; stroke-width: 1; stroke-dasharray: none; stroke-linecap: butt; stroke-linejoin: miter; stroke-miterlimit: 10; fill: none; fill-rule: nonzero; opacity: 1;" transform="translate(10 10) scale(0.23 0.23)" >
  <path d="M 256 512 C 114.616 512 0 397.384 0 256 C -0.004 114.616 114.611 0.002 255.995 0 C 397.38 0 512 114.616 512 256 S 397.384 512 256 512 z" style="stroke: none; stroke-width: 1; stroke-dasharray: none; stroke-linecap: butt; stroke-linejoin: miter; stroke-miterlimit: 10; fill: #dc143c; fill-rule: nonzero; opacity: 1;" transform=" matrix(1 0 0 1 0 0) " stroke-linecap="round" />
  <path d="M 338.321 174.337 v -0.196 c 0 -0.205 -0.009 -0.406 -0.009 -0.616 c -0.161 -45.375 -36.991 -82.103 -82.401 -82.103 c -45.514 0 -82.416 36.893 -82.416 82.411 v 164.419 h 0.565 c 0 0.071 -0.012 0.152 -0.012 0.219 h -0.433 c 0 43.781 36.901 82.094 82.415 82.094 c 45.299 0 82.049 -35.736 82.401 -82.094 h 0.072 v -8 c 0 -0.401 0 -0.808 0 -1.205 V 174.337 H 338.321 z" style="stroke: none; stroke-width: 1; stroke-dasharray: none; stroke-linecap: butt; stroke-linejoin: miter; stroke-miterlimit: 10; fill: #303050; fill-rule: nonzero; opacity: 1;" transform=" matrix(1 0 0 1 0 0) " stroke-linecap="round" />
  <path d="M 174.049 338.471 h 12.817 c 84.736 -6.808 151.406 -77.647 151.455 -164.134 v -0.196 c 0 -0.205 -0.009 -0.406 -0.009 -0.616 c -0.161 -45.375 -36.991 -82.103 -82.401 -82.103 c -45.514 0 -82.416 36.893 -82.416 82.411 v 164.419 h 0.565 C 174.061 338.323 174.049 338.404 174.049 338.471 z M 235.306 173.833 c 0 -11.38 9.226 -20.604 20.605 -20.604 c 11.375 0 20.603 9.224 20.603 20.604 c 0 11.379 -9.228 20.603 -20.603 20.603 C 244.531 194.436 235.306 185.212 235.306 173.833 z" style="stroke: none; stroke-width: 1; stroke-dasharray: none; stroke-linecap: butt; stroke-linejoin: miter; stroke-miterlimit: 10; fill: #FFFFFF; fill-rule: nonzero; opacity: 1;" transform=" matrix(1 0 0 1 0 0) " stroke-linecap="round" />
  <path d="M 255.911 153.229 c 11.375 0 20.603 9.224 20.603 20.604 c 0 11.379 -9.228 20.603 -20.603 20.603 c -11.38 0 -20.605 -9.224 -20.605 -20.603 C 235.306 162.453 244.531 153.229 255.911 153.229 z" style="stroke: none; stroke-width: 1; stroke-dasharray: none; stroke-linecap: butt; stroke-linejoin: miter; stroke-miterlimit: 10; fill: #A6A6A7; fill-rule: nonzero; opacity: 1;" transform=" matrix(1 0 0 1 0 0) " stroke-linecap="round" />
  <path d="M 174.049 338.471 h 12.817 h 7.063 c 81.357 -10.299 144.576 -80.063 144.576 -164.134 v 154.929 c 0 0.397 0 0.804 0 1.205 v 8 h -0.072 c -0.353 46.357 -37.103 82.094 -82.401 82.094 c -45.514 0 -82.415 -38.313 -82.415 -82.094 L 174.049 338.471 L 174.049 338.471 z" style="stroke: none; stroke-width: 1; stroke-dasharray: none; stroke-linecap: butt; stroke-linejoin: miter; stroke-miterlimit: 10; fill: #303050; fill-rule: nonzero; opacity: 1;" transform=" matrix(1 0 0 1 0 0) " stroke-linecap="round" />
</g>
</svg>