<?xml version="1.0" encoding="UTF-8" standalone="no" ?>
<!DOCTYPE svg PUBLIC "-//W3C//DTD SVG 1.1//EN" "http://www.w3.org/Graphics/SVG/1.1/DTD/svg11.dtd">
<svg xmlns="http://www.w3.org/2000/svg" xmlns:xlink="http://www.w3.org/1999/xlink" version="1.1" width="199.54999999999998" height="199.54999999999998" xml:space="preserve">
<desc>Created with Fabric.js 1.6.0-rc.1</desc>
<defs></defs>
<g style="stroke: none; stroke-width: 1; stroke-dasharray: none; stroke-linecap: butt; stroke-linejoin: miter; stroke-miterlimit: 10; fill: #fff; fill-rule: nonzero; opacity: 1;" transform="translate(10 10) scale(0.35 0.35)" >
  <path d="M 155.612 214.308 V 20.48 C 93.348 46.995 43.703 97.645 18.468 160.548 l 137.143 137.143 L 155.612 214.308 L 155.612 214.308 z" style="stroke: none; stroke-width: 1; stroke-dasharray: none; stroke-linecap: butt; stroke-linejoin: miter; stroke-miterlimit: 10; fill: #14dc50; fill-rule: nonzero; opacity: 1;" transform=" matrix(1 0 0 1 0 0) " stroke-linecap="round" />
  <path d="M 214.308 155.61 L 351.452 18.468 C 321.92 6.582 289.737 0 256 0 c -35.657 0 -69.577 7.314 -100.388 20.48 v 193.828 L 214.308 155.61 z" style="stroke: none; stroke-width: 1; stroke-dasharray: none; stroke-linecap: butt; stroke-linejoin: miter; stroke-miterlimit: 10; fill: #D7E664; fill-rule: nonzero; opacity: 1;" transform=" matrix(1 0 0 1 0 0) " stroke-linecap="round" />
  <path d="M 491.52 155.61 H 297.692 l 58.697 58.698 l 137.143 137.143 C 505.418 321.92 512 289.737 512 256 C 512 220.343 504.686 186.423 491.52 155.61 z" style="stroke: none; stroke-width: 1; stroke-dasharray: none; stroke-linecap: butt; stroke-linejoin: miter; stroke-miterlimit: 10; fill: #ffaa64; fill-rule: nonzero; opacity: 1;" transform=" matrix(1 0 0 1 0 0) " stroke-linecap="round" />
  <path d="M 356.388 297.692 V 491.52 c 62.263 -26.515 111.908 -77.165 137.143 -140.068 L 356.388 214.308 V 297.692 z" style="stroke: none; stroke-width: 1; stroke-dasharray: none; stroke-linecap: butt; stroke-linejoin: miter; stroke-miterlimit: 10; fill: #ed365b; fill-rule: nonzero; opacity: 1;" transform=" matrix(1 0 0 1 0 0) " stroke-linecap="round" />
  <path d="M 297.692 356.388 L 160.548 493.532 C 190.08 505.417 222.263 512 256 512 c 35.658 0 69.577 -7.314 100.388 -20.48 V 297.692 L 297.692 356.388 z" style="stroke: none; stroke-width: 1; stroke-dasharray: none; stroke-linecap: butt; stroke-linejoin: miter; stroke-miterlimit: 10; fill: #dc143c; fill-rule: nonzero; opacity: 1;" transform=" matrix(1 0 0 1 0 0) " stroke-linecap="round" />
  <path d="M 214.308 356.388 H 20.48 c 26.515 62.263 77.165 111.908 140.068 137.143 l 137.143 -137.143 H 214.308 z" style="stroke: none; stroke-width: 1; stroke-dasharray: none; stroke-linecap: butt; stroke-linejoin: miter; stroke-miterlimit: 10; fill: #14dcb3; fill-rule: nonzero; opacity: 1;" transform=" matrix(1 0 0 1 0 0) " stroke-linecap="round" />
  <path d="M 155.612 297.692 L 18.468 160.548 C 6.582 190.08 0 222.263 0 256 c 0 35.657 7.314 69.577 20.48 100.388 h 193.828 L 155.612 297.692 z" style="stroke: none; stroke-width: 1; stroke-dasharray: none; stroke-linecap: butt; stroke-linejoin: miter; stroke-miterlimit: 10; fill: #7DE6C3; fill-rule: nonzero; opacity: 1;" transform=" matrix(1 0 0 1 0 0) " stroke-linecap="round" />
  <path d="M 297.692 155.61 H 491.52 C 465.005 93.348 414.355 43.702 351.452 18.468 L 214.308 155.61 H 297.692 z" style="stroke: none; stroke-width: 1; stroke-dasharray: none; stroke-linecap: butt; stroke-linejoin: miter; stroke-miterlimit: 10; fill: #ffe669; fill-rule: nonzero; opacity: 1;" transform=" matrix(1 0 0 1 0 0) " stroke-linecap="round" />
</g>
</svg>